<svg class="icon" width="50" height="50" xmlns="http://www.w3.org/2000/svg" fill="#000000">

 <g>
  <title>Layer 1</title>
  <path id="svg_1" d="m32.35229,7.67364c-4.94959,0 -8.97456,4.02497 -8.97456,8.97456c0,0.29743 0.07435,0.58839 0.10345,0.87935c-6.1199,-0.58516 -11.53179,-3.53357 -15.20761,-8.04348c-0.17134,-0.21661 -0.43644,-0.33299 -0.71447,-0.3136c-0.2748,0.0194 -0.5205,0.17782 -0.65628,0.41705c-0.77266,1.32873 -1.21557,2.8579 -1.21557,4.50021c0,1.98824 0.71124,3.80837 1.81043,5.30197c-0.21337,-0.09375 -0.44614,-0.14548 -0.64658,-0.25863c-0.2554,-0.13578 -0.56253,-0.12932 -0.81146,0.0194c-0.24893,0.14872 -0.40088,0.41704 -0.40411,0.70477l0,0.10345c0,3.04863 1.57766,5.69639 3.90536,7.31931c-0.02586,-0.00324 -0.05173,0.00646 -0.07759,0c-0.2845,-0.04849 -0.57223,0.05173 -0.76296,0.26833c-0.19074,0.21661 -0.25217,0.51727 -0.16812,0.79206c0.92461,2.87406 3.28464,5.0692 6.20719,5.87097c-2.3277,1.38369 -5.02718,2.19838 -7.94003,2.19838c-0.63042,0 -1.23497,-0.03233 -1.83629,-0.10345c-0.38795,-0.05173 -0.75974,0.17458 -0.88905,0.54313c-0.13255,0.36855 0.01294,0.77913 0.34592,0.9828c3.73401,2.39559 8.16633,3.8019 12.93164,3.8019c7.72342,0 13.78189,-3.22645 17.84567,-7.83658c4.06377,-4.61013 6.18132,-10.59748 6.18132,-16.19042c0,-0.23601 -0.0194,-0.46554 -0.02586,-0.69831c1.51623,-1.16061 2.87082,-2.52167 3.93122,-4.11226c0.21014,-0.30712 0.18751,-0.71771 -0.05496,-1.0022c-0.23923,-0.2845 -0.64335,-0.37179 -0.97957,-0.21337c-0.42674,0.19074 -0.92461,0.21014 -1.37075,0.36209c0.58839,-0.7856 1.09272,-1.63262 1.39662,-2.58633c0.10345,-0.32652 -0.0097,-0.68537 -0.27803,-0.89875c-0.26833,-0.21013 -0.64335,-0.236 -0.93754,-0.05819c-1.41278,0.83732 -2.97751,1.42572 -4.62953,1.78457c-1.60352,-1.50007 -3.71461,-2.50874 -6.07787,-2.50874zm0,1.65525c2.11109,0 4.01851,0.90198 5.3537,2.3277c0.20044,0.20691 0.49464,0.2942 0.7759,0.23277c1.07979,-0.21337 2.10463,-0.52697 3.10359,-0.93108c-0.57546,0.7759 -1.2867,1.43864 -2.12079,1.93975c-0.37825,0.18428 -0.55606,0.62072 -0.41705,1.01837c0.13579,0.39441 0.5496,0.62395 0.96018,0.53343c0.82763,-0.10022 1.56473,-0.43644 2.35356,-0.64658c-0.70801,0.7662 -1.48391,1.45804 -2.3277,2.06906c-0.22953,0.16812 -0.35562,0.43968 -0.33622,0.72417c0.01294,0.33622 0.02586,0.66921 0.02586,1.00867c0,5.17266 -1.98501,10.78823 -5.76751,15.07829c-3.7825,4.29007 -9.33665,7.29345 -16.60423,7.29345c-3.3008,0 -6.41733,-0.73064 -9.23319,-2.01734c3.49154,-0.26833 6.71153,-1.50331 9.31078,-3.54327c0.27157,-0.21661 0.37825,-0.57869 0.26833,-0.90845c-0.10992,-0.32975 -0.41381,-0.55606 -0.75974,-0.56576c-2.72857,-0.04849 -5.01424,-1.63585 -6.23305,-3.87949c0.04526,0 0.08405,0 0.12932,0c0.81793,0 1.62615,-0.10345 2.37942,-0.31036c0.36209,-0.10669 0.61102,-0.44291 0.59809,-0.82116c-0.01294,-0.37825 -0.28127,-0.70154 -0.64982,-0.78236c-2.94518,-0.59486 -5.15326,-2.99368 -5.66406,-5.97442c0.83409,0.28773 1.68758,0.51403 2.61219,0.54313c0.37825,0.02263 0.72094,-0.21337 0.83732,-0.57223c0.11638,-0.35885 -0.02586,-0.75326 -0.34592,-0.95371c-1.96561,-1.31579 -3.25877,-3.5562 -3.25877,-6.10374c0,-0.94401 0.24571,-1.81043 0.56899,-2.63805c4.13813,4.54224 9.9315,7.55854 16.47491,7.8883c0.25863,0.01294 0.5108,-0.09375 0.67891,-0.29096c0.16812,-0.20044 0.23277,-0.46554 0.17458,-0.71771c-0.12608,-0.53667 -0.20691,-1.10566 -0.20691,-1.68111c0,-4.05407 3.26524,-7.31931 7.31931,-7.31931z"/>
 </g>
</svg>