<svg width="32" height="32" xmlns="http://www.w3.org/2000/svg" fill="#000000" class="icon">
 <g>
  <title>Layer 1</title>
  <path d="m16.07824,1.90458c-7.66251,0 -13.8874,6.2249 -13.8874,13.8874c0,7.66251 6.2249,13.8874 13.8874,13.8874c7.66251,0 13.8874,-6.2249 13.8874,-13.8874c0,-7.66251 -6.2249,-13.8874 -13.8874,-13.8874zm0,1.2076c7.00984,0 12.6798,5.66997 12.6798,12.6798c0,7.00984 -5.66997,12.6798 -12.6798,12.6798c-7.00984,0 -12.6798,-5.66997 -12.6798,-12.6798c0,-7.00984 5.66997,-12.6798 12.6798,-12.6798zm-2.4152,4.2266l-6.038,5.4342l4.09452,0c0.01208,1.71902 1.32008,3.46006 3.61572,3.46006c0.21737,0 0.45898,-0.0242 0.7005,-0.04835c-0.10868,0.27171 -0.22289,0.49493 -0.22289,0.86325c0,0.69437 0.35011,1.11099 0.65805,1.5095c-0.98419,0.06642 -2.81408,0.18081 -4.16056,1.02009c-1.28609,0.7789 -1.67814,1.90829 -1.67814,2.70531c0,1.64234 1.52158,3.16995 4.67945,3.16995c3.74356,0 5.7302,-2.10693 5.7302,-4.19004c0,-1.52761 -0.87023,-2.28275 -1.83027,-3.10391l-0.77833,-0.62149c-0.24152,-0.19322 -0.57432,-0.46512 -0.57432,-0.94816c0,-0.48908 0.33298,-0.80338 0.61677,-1.0932c0.91174,-0.72456 1.82909,-1.53941 1.82909,-3.18175c0,-0.62976 -0.14721,-1.14229 -0.35733,-1.56375l2.16873,-1.85975l0,2.23831c-0.35926,0.20891 -0.6038,0.59393 -0.6038,1.04014l0,3.6228c0,0.6666 0.541,1.2076 1.2076,1.2076c0.6666,0 1.2076,-0.541 1.2076,-1.2076l0,-3.6228c0,-0.4456 -0.24454,-0.83062 -0.6038,-1.04014l0,-3.18646c0,-0.02596 -0.01171,-0.04775 -0.01533,-0.07311l0.61913,-0.53069l-10.2646,0zm1.97414,1.95645c1.8114,0 2.74776,2.48148 2.74776,4.08155c0,0.39247 -0.04854,1.09887 -0.54366,1.6121c-0.3502,0.35624 -0.93527,0.62149 -1.48473,0.62149c-1.86574,0 -2.72418,-2.46294 -2.72418,-3.94829c0,-0.57361 0.11519,-1.1709 0.48351,-1.62979c0.3502,-0.45285 0.95976,-0.73706 1.52129,-0.73706zm1.06844,9.8837c0.22341,0 0.33318,0.00061 0.50828,0.02476c1.65441,1.19552 2.36685,1.79319 2.36685,2.9223c0,1.37063 -1.10543,2.39752 -3.20061,2.39752c-2.33067,0 -3.828,-1.12939 -3.828,-2.70531c0,-1.57592 1.3885,-2.10198 1.87155,-2.28312c0.91174,-0.31398 2.08872,-0.35615 2.28194,-0.35615z" id="svg_1"/>
 </g>

</svg>