<svg class="icon" width="50" height="50" xmlns="http://www.w3.org/2000/svg" fill="#000000">

 <g>
  <title>Layer 1</title>
  <path id="svg_1" d="m25,2c-12.6907,0 -23,10.3093 -23,23c0,12.69071 10.3093,23 23,23c12.69071,0 23,-10.30929 23,-23c0,-12.6907 -10.30929,-23 -23,-23zm0,2c11.60982,0 21,9.39018 21,21c0,11.60982 -9.39018,21 -21,21c-11.60982,0 -21,-9.39018 -21,-21c0,-11.60982 9.39018,-21 21,-21zm-9,8c-1.64501,0 -3,1.35499 -3,3c0,1.64501 1.35499,3 3,3c1.64501,0 3,-1.35499 3,-3c0,-1.64501 -1.35499,-3 -3,-3zm0,2c0.56413,0 1,0.43587 1,1c0,0.56413 -0.43587,1 -1,1c-0.56413,0 -1,-0.43587 -1,-1c0,-0.56413 0.43587,-1 1,-1zm-2,5a1.0001,1.0001 0 0 0 -1,1l0,15a1.0001,1.0001 0 0 0 1,1l4,0a1.0001,1.0001 0 0 0 1,-1l0,-15a1.0001,1.0001 0 0 0 -1,-1l-4,0zm8,0a1.0001,1.0001 0 0 0 -1,1l0,15a1.0001,1.0001 0 0 0 1,1l4,0a1.0001,1.0001 0 0 0 1,-1l0,-7.5c0,-1.37955 1.12045,-2.5 2.5,-2.5c1.37955,0 2.5,1.12045 2.5,2.5l0,2.5l0,5a1.0001,1.0001 0 0 0 1,1l4,0a1.0001,1.0001 0 0 0 1,-1l0,-8.5c0,-4.13039 -3.36961,-7.5 -7.5,-7.5c-1.28647,0 -2.44026,0.41615 -3.5,0.99023a1.0001,1.0001 0 0 0 -1,-0.99023l-4,0zm-7,2l2,0l0,13l-2,0l0,-13zm8,0l2,0l0,0.81641a1.0001,1.0001 0 0 0 1.69336,0.7207c0.99083,-0.95181 2.32332,-1.53711 3.80664,-1.53711c3.04961,0 5.5,2.45039 5.5,5.5l0,7.5l-2,0l0,-4l0,-2.5c0,-2.47046 -2.02954,-4.5 -4.5,-4.5c-2.47046,0 -4.5,2.02954 -4.5,4.5l0,6.5l-2,0l0,-13z"/>
 </g>
</svg>