<svg class="icon" width="32" height="32" xmlns="http://www.w3.org/2000/svg" data-name="1-Email">
 <title>email-icon</title>

 <g>
  <title>Layer 1</title>
  <path id="svg_1" d="m26.15719,7.11037l-19.91304,0a2.29766,2.30184 0 0 0 -2.29766,2.30184l0,13.81104a2.29766,2.30184 0 0 0 2.29766,2.30184l19.91304,0a2.29766,2.30184 0 0 0 2.29766,-2.30184l0,-13.81104a2.29766,2.30184 0 0 0 -2.29766,-2.30184zm-0.55144,1.53456l-9.40508,6.72904l-9.40508,-6.72904l18.81017,0zm1.31732,14.57832a0.76589,0.76728 0 0 1 -0.76589,0.76728l-19.91304,0a0.76589,0.76728 0 0 1 -0.76589,-0.76728l0,-13.63456l10.27819,7.35054a0.76589,0.76728 0 0 0 0.88843,0l10.27819,-7.35054l0,13.63456z"/>
 </g>
</svg>